<?xml version="1.0" encoding="UTF-8"?>
<svg version="1.1" xmlns="http://www.w3.org/2000/svg" width="32" height="32">
<path d="M0 0 C10.56 0 21.12 0 32 0 C32 10.56 32 21.12 32 32 C21.44 32 10.88 32 0 32 C0 21.44 0 10.88 0 0 Z " fill="#FCFCFC" transform="translate(0,0)"/>
<path d="M0 0 C2.1875 -0.5 2.1875 -0.5 5 0 C7.3981167 2.83885166 10 6.18795831 10 10 C10.66 10 11.32 10 12 10 C12.268125 9.278125 12.53625 8.55625 12.8125 7.8125 C14.02618879 4.93797393 15.08983806 2.47613585 17 0 C19.6875 -0.3125 19.6875 -0.3125 22 0 C21.41098089 3.28270409 20.38176788 5.00670276 18.125 7.4375 C16.19091943 9.58442197 14.74354311 11.43048121 13.25 13.9375 C12.8375 14.618125 12.425 15.29875 12 16 C11.34 16 10.68 16 10 16 C8.8515625 14.390625 8.8515625 14.390625 7.625 12.25 C6.11472881 9.71202947 4.85573416 7.85573416 2.75 5.75 C0.83092649 3.83092649 0.3786167 2.65031691 0 0 Z " fill="#16488E" transform="translate(5,10)"/>
<path d="M0 0 C0.99 0.33 1.98 0.66 3 1 C4.1875 3.5625 4.1875 3.5625 5 6 C5.66 6 6.32 6 7 6 C5.66749209 9.5875213 4.169283 12.8364623 2 16 C1.34 16 0.68 16 0 16 C-1.61316843 13.62769349 -2.96044483 11.64131875 -4 9 C-3.28307503 5.27199015 -2.10488967 3.15733451 0 0 Z " fill="#E1EBEC" transform="translate(15,4)"/>
<path d="M0 0 C0.721875 0.165 1.44375 0.33 2.1875 0.5 C1.59449172 3.82377481 0.49836896 5.62925548 -1.75 8.125 C-2.53697266 9.01058594 -2.53697266 9.01058594 -3.33984375 9.9140625 C-4.47207406 11.13338745 -5.63591622 12.32341622 -6.8125 13.5 C-7.91124918 10.79538664 -8.05970163 9.09971337 -6.94140625 6.38671875 C-3.67217354 0.65283085 -3.67217354 0.65283085 0 0 Z " fill="#1D79B5" transform="translate(24.8125,9.5)"/>
<path d="M0 0 C0.99 0.33 1.98 0.66 3 1 C3.33 3.31 3.66 5.62 4 8 C2.02 8.99 2.02 8.99 0 10 C-0.66 9.34 -1.32 8.68 -2 8 C-1.42307692 1.42307692 -1.42307692 1.42307692 0 0 Z " fill="#71C549" transform="translate(15,4)"/>
<path d="M0 0 C1.32 0.66 2.64 1.32 4 2 C3.34 3.98 2.68 5.96 2 8 C0.35 8.33 -1.3 8.66 -3 9 C-2.01 6.03 -1.02 3.06 0 0 Z " fill="#EE9E2A" transform="translate(8,17)"/>
<path d="M0 0 C0.66 0 1.32 0 2 0 C2.99 2.97 3.98 5.94 5 9 C3.35 8.67 1.7 8.34 0 8 C-0.66 6.02 -1.32 4.04 -2 2 C-1.34 1.34 -0.68 0.68 0 0 Z " fill="#EEA02B" transform="translate(22,17)"/>
<path d="M0 0 C1.32 0 2.64 0 4 0 C3.67 2.31 3.34 4.62 3 7 C2.34 7 1.68 7 1 7 C0.34 5.02 -0.32 3.04 -1 1 C-0.67 0.67 -0.34 0.34 0 0 Z " fill="#0E4F98" transform="translate(14,19)"/>
<path d="M0 0 C0.268125 0.598125 0.53625 1.19625 0.8125 1.8125 C1.98493467 3.97224808 3.19369282 5.35790256 5 7 C3.68 7.33 2.36 7.66 1 8 C-1.125 3.375 -1.125 3.375 0 0 Z " fill="#E0EEDF" transform="translate(12,8)"/>
<path d="M0 0 C1.65 0 3.3 0 5 0 C4.34 0.66 3.68 1.32 3 2 C3.66 3.32 4.32 4.64 5 6 C3.0625 5.25 3.0625 5.25 1 4 C0.25 1.875 0.25 1.875 0 0 Z " fill="#20549C" transform="translate(5,10)"/>
</svg>
